<svg version="1.1" viewBox="0.0 0.0 496.08923884514434 489.50656167979" fill="none" stroke="none" stroke-linecap="square" stroke-miterlimit="10" xmlns:xlink="http://www.w3.org/1999/xlink" xmlns="http://www.w3.org/2000/svg"><clipPath id="p.0"><path d="m0 0l496.08923 0l0 489.50656l-496.08923 0l0 -489.50656z" clip-rule="nonzero"/></clipPath><g clip-path="url(#p.0)"><path fill="#000000" fill-opacity="0.0" d="m0 0l496.08923 0l0 489.50656l-496.08923 0z" fill-rule="evenodd"/><path fill="#cfe2f3" d="m8.07615 242.7664l0 0c0 -133.23544 108.00866 -241.2441 241.2441 -241.2441l0 0c63.981903 0 125.34329 25.416714 170.58533 70.65876c45.242035 45.242043 70.65875 106.60342 70.65875 170.58533l0 0c0 133.23543 -108.00867 241.2441 -241.24408 241.2441l0 0c-133.23544 0 -241.2441 -108.00867 -241.2441 -241.2441z" fill-rule="evenodd"/><path fill="#000000" fill-opacity="0.0" d="m449.02682 141.07146c2.7771301 12.574432 10.34079 24.2751 10.599091 37.149963c0.20266724 10.103012 -5.4369507 19.467484 -7.896118 29.268723" fill-rule="evenodd"/><path stroke="#000000" stroke-width="8.0" stroke-linejoin="round" stroke-linecap="butt" d="m449.02682 141.07146c2.7771301 12.574432 10.34079 24.2751 10.599091 37.149963c0.20266724 10.103012 -5.4369507 19.467484 -7.896118 29.268723" fill-rule="evenodd"/><path fill="#000000" fill-opacity="0.0" d="m265.02948 39.71308l183.40158 100.7244" fill-rule="evenodd"/><path stroke="#000000" stroke-width="8.0" stroke-linejoin="round" stroke-linecap="butt" d="m265.02948 39.71308l183.40158 100.7244" fill-rule="evenodd"/><path fill="#000000" fill-opacity="0.0" d="m248.8397 421.8184l201.41731 -215.77953" fill-rule="evenodd"/><path stroke="#000000" stroke-width="8.0" stroke-linejoin="round" stroke-linecap="butt" d="m248.8397 421.8184l201.41731 -215.77953" fill-rule="evenodd"/><path fill="#000000" fill-opacity="0.0" d="m44.09653 259.88885l220.97638 -220.12599" fill-rule="evenodd"/><path stroke="#000000" stroke-width="8.0" stroke-linejoin="round" stroke-linecap="butt" d="m44.09653 259.88885l220.97638 -220.12599" fill-rule="evenodd"/><path fill="#f4cccc" d="m203.56168 372.45886l23.59056 -1.1023865l2.393692 49.858276l-23.590546 1.102356z" fill-rule="evenodd"/><path fill="#f4cccc" d="m184.03621 385.03082l12.598434 -19.968506l42.267715 26.551178l-12.598434 19.968506z" fill-rule="evenodd"/><path fill="#f4cccc" d="m193.23622 411.81088l19.40158 -30.740143l24.755905 15.5590515l-19.40158 30.740143z" fill-rule="evenodd"/><path fill="#000000" fill-opacity="0.0" d="m49.57887 268.2275c0.5500183 12.64917 5.966488 25.264069 3.9832764 37.776855c-1.5562401 9.818909 -8.738598 17.931458 -12.86425 27.00653" fill-rule="evenodd"/><path stroke="#f4cccc" stroke-width="8.0" stroke-linejoin="round" stroke-linecap="butt" d="m49.57887 268.2275c0.5500183 12.64917 5.966488 25.264069 3.9832764 37.776855c-1.5562401 9.818909 -8.738598 17.931458 -12.86425 27.00653" fill-rule="evenodd"/><path fill="#f4cccc" d="m208.09587 408.2121l-4.535431 -36.06299l29.007874 -3.7165222l4.535431 36.06299z" fill-rule="evenodd"/><path fill="#f4cccc" d="m45.236725 331.56067l19.527557 -30.64566l24.692917 15.653534l-19.527565 30.64569z" fill-rule="evenodd"/><path fill="#f4cccc" d="m198.2236 412.88876l19.527557 -30.64566l24.692917 15.653534l-19.527557 30.64566z" fill-rule="evenodd"/><path fill="#f4cccc" d="m55.50955 270.12628l18.330708 0l0 60.850403l-18.330708 0z" fill-rule="evenodd"/><path fill="#f4cccc" d="m78.16963 275.27298l157.44882 94.01575l-32.56694 54.551178l-157.44882 -94.01575z" fill-rule="evenodd"/><path fill="#000000" fill-opacity="0.0" d="m232.78986 365.1973c0.5860748 13.550812 6.0391083 27.079926 4.091278 40.4769c-1.5284882 10.512726 -8.688644 19.18039 -12.788986 28.888458" fill-rule="evenodd"/><path stroke="#000000" stroke-width="8.0" stroke-linejoin="round" stroke-linecap="butt" d="m232.78986 365.1973c0.5860748 13.550812 6.0391083 27.079926 4.091278 40.4769c-1.5284882 10.512726 -8.688644 19.18039 -12.788986 28.888458" fill-rule="evenodd"/><path fill="#000000" fill-opacity="0.0" d="m35.45932 330.46072l190.48819 104.031494" fill-rule="evenodd"/><path stroke="#000000" stroke-width="8.0" stroke-linejoin="round" stroke-linecap="butt" d="m35.45932 330.46072l190.48819 104.031494" fill-rule="evenodd"/><path fill="#ffffff" d="m187.063 223.84756l61.919403 111.38202l-115.30336 113.708405l-110.55305 -63.421143z" fill-rule="evenodd"/><path fill="#d81c0c" d="m172.68256 250.28752l51.954605 93.54692l-92.72812 91.39438l-92.8013 -53.28775z" fill-rule="evenodd"/><path stroke="#ff0000" stroke-width="1.0" stroke-linejoin="round" stroke-linecap="butt" d="m172.68256 250.28752l51.954605 93.54692l-92.72812 91.39438l-92.8013 -53.28775z" fill-rule="evenodd"/><path fill="#cfe2f3" d="m244.46068 366.65152l-137.92126 -76.53543l71.937004 -129.7323l137.92125 76.535446z" fill-rule="evenodd"/><path fill="#f4cccc" d="m211.07088 398.59055l-141.29134 -78.39371l17.921257 -32.31494l141.29135 78.39368z" fill-rule="evenodd"/><path fill="#f4cccc" d="m53.164085 276.90076l4.4409447 -4.4409485l42.36221 42.362213l-4.4409485 4.4409485z" fill-rule="evenodd"/><path fill="#000000" fill-opacity="0.0" d="m11.414699 383.68765l122.11024 70.48819" fill-rule="evenodd"/><path stroke="#000000" stroke-width="8.0" stroke-linejoin="round" stroke-linecap="butt" d="m11.414699 383.68765l122.11024 70.48819" fill-rule="evenodd"/><path fill="#000000" fill-opacity="0.0" d="m177.05774 411.58267l-44.944885 43.24411" fill-rule="evenodd"/><path stroke="#000000" stroke-width="8.0" stroke-linejoin="round" stroke-linecap="butt" d="m177.05774 411.58267l-44.944885 43.24411" fill-rule="evenodd"/><path fill="#f4cccc" d="m48.475277 284.53864l8.062992 -16.440948l54.645668 26.803162l-8.062988 16.440948z" fill-rule="evenodd"/><path fill="#000000" fill-opacity="0.0" d="m60.04928 342.7941l-44.94488 43.24408" fill-rule="evenodd"/><path stroke="#000000" stroke-width="8.0" stroke-linejoin="round" stroke-linecap="butt" d="m60.04928 342.7941l-44.94488 43.24408" fill-rule="evenodd"/><path fill="#f4cccc" d="m44.946575 272.99194l3.8740158 -7.8740234l41.19685 20.22049l-3.8740158 7.8740234z" fill-rule="evenodd"/><path fill="#000000" fill-opacity="0.0" d="m44.09653 259.88885l190.58269 105.165344" fill-rule="evenodd"/><path stroke="#000000" stroke-width="8.0" stroke-linejoin="round" stroke-linecap="butt" d="m44.09653 259.88885l190.58269 105.165344" fill-rule="evenodd"/></g></svg>