<svg xmlns="http://www.w3.org/2000/svg" viewBox="0 0 216.94 195.59"><defs><style>.cls-1,.cls-10,.cls-2,.cls-4,.cls-5,.cls-8{fill:#fff;}.cls-1,.cls-2,.cls-3,.cls-4,.cls-6,.cls-7,.cls-8{stroke:#000;}.cls-1,.cls-10,.cls-2,.cls-3,.cls-4,.cls-6,.cls-7,.cls-8{stroke-miterlimit:10;}.cls-1,.cls-3,.cls-4,.cls-6,.cls-7,.cls-8{stroke-width:4px;}.cls-3,.cls-6,.cls-7{fill:none;}.cls-3,.cls-8{stroke-linecap:square;}.cls-4,.cls-7{stroke-linecap:round;}.cls-9{font-size:30.4px;font-family:MyriadPro-Regular, Myriad Pro;letter-spacing:0.15em;}.cls-10{stroke:#fff;stroke-width:2px;}</style></defs><g id="Layer_1" data-name="Layer 1"><path class="cls-1" d="M141.76,370.16c7.39,19.22,0,32.84,0,32.84" transform="translate(-39.5 -212.59)"/><polyline class="cls-2" points="102.93 164.75 90.98 158.01 45.14 132.51 12.08 113.9"/><line class="cls-3" x1="102.03" y1="190.14" x2="72.49" y2="173.5"/><path class="cls-1" d="M143.73,404.41" transform="translate(-39.5 -212.59)"/><line class="cls-4" x1="211.72" y1="88.23" x2="110.87" y2="185.55"/><path class="cls-1" d="M244,296.69" transform="translate(-39.5 -212.59)"/><path class="cls-1" d="M227,282.84" transform="translate(-39.5 -212.59)"/><path class="cls-1" d="M221.09,286.21" transform="translate(-39.5 -212.59)"/><path class="cls-1" d="M70.28,330.2" transform="translate(-39.5 -212.59)"/><path class="cls-1" d="M60.11,340" transform="translate(-39.5 -212.59)"/><path class="cls-1" d="M251.16,267.72c7.38,19.21,0,32.84,0,32.84" transform="translate(-39.5 -212.59)"/><path class="cls-1" d="M147.67,367.76" transform="translate(-39.5 -212.59)"/><path d="M142.1,404.22a1.5,1.5,0,0,0,0-3,1.5,1.5,0,0,0,0,3Z" transform="translate(-39.5 -212.59)"/><path d="M142.1,404.71a1.5,1.5,0,0,0,0-3,1.5,1.5,0,0,0,0,3Z" transform="translate(-39.5 -212.59)"/><path d="M142,404.79a1.5,1.5,0,0,0,0-3,1.5,1.5,0,0,0,0,3Z" transform="translate(-39.5 -212.59)"/><path d="M142.18,404.71a1.5,1.5,0,0,0,0-3,1.5,1.5,0,0,0,0,3Z" transform="translate(-39.5 -212.59)"/><polyline class="cls-2" points="105.13 184.62 94.59 178.68 45.75 151.18 11.28 131.77"/><polyline class="cls-2" points="104.52 177.74 93.98 171.8 47.86 145.83 13.39 126.42"/><path d="M142.15,404.84a1.5,1.5,0,0,0,0-3,1.5,1.5,0,0,0,0,3Z" transform="translate(-39.5 -212.59)"/><path d="M142.09,405a1.5,1.5,0,0,0,0-3,1.5,1.5,0,0,0,0,3Z" transform="translate(-39.5 -212.59)"/><path d="M142.13,404.93a1.5,1.5,0,0,0,0-3,1.5,1.5,0,0,0,0,3Z" transform="translate(-39.5 -212.59)"/><path d="M142.15,404.84a1.5,1.5,0,0,0,0-3,1.5,1.5,0,0,0,0,3Z" transform="translate(-39.5 -212.59)"/><path d="M142.15,404.86a1.5,1.5,0,0,0,0-3,1.5,1.5,0,0,0,0,3Z" transform="translate(-39.5 -212.59)"/><path d="M142.17,404.86a1.5,1.5,0,0,0,0-3,1.5,1.5,0,0,0,0,3Z" transform="translate(-39.5 -212.59)"/><path d="M142.75,405l.07-.09-.06.07.18-.21-.58-.46a1.73,1.73,0,0,1-.2.32l.06-.07a1.8,1.8,0,0,1-.19.2l.54.53a3.58,3.58,0,0,0,.3-.36,3.45,3.45,0,0,0,.2-.32.48.48,0,0,0,0-.29.46.46,0,0,0-.18-.23.36.36,0,0,0-.29,0,.32.32,0,0,0-.22.17c-.07.13-.15.25-.23.37l.05-.08a1.21,1.21,0,0,1-.21.24.43.43,0,0,0-.1.27.4.4,0,0,0,.1.26.36.36,0,0,0,.27.11.4.4,0,0,0,.27-.11,2.13,2.13,0,0,0,.43-.6.24.24,0,0,0,.05-.14.26.26,0,0,0,0-.15l0-.09a.22.22,0,0,0-.09-.1.34.34,0,0,0-.23-.08.35.35,0,0,0-.27.11,3.93,3.93,0,0,0-.31.38.33.33,0,0,0,0,.14.26.26,0,0,0,0,.15.38.38,0,0,0,.46.26l.09,0a.4.4,0,0,0,.13-.13Z" transform="translate(-39.5 -212.59)"/><path d="M142.75,404.81a.38.38,0,0,0,0-.75.38.38,0,0,0,0,.75Z" transform="translate(-39.5 -212.59)"/><path d="M142.64,404.9a.38.38,0,0,0,0-.75.38.38,0,0,0,0,.75Z" transform="translate(-39.5 -212.59)"/><path d="M142.71,404.85a.38.38,0,0,0,0-.75.38.38,0,0,0,0,.75Z" transform="translate(-39.5 -212.59)"/><path class="cls-5" d="M142.22,406.12a.38.38,0,0,0,0-.75.38.38,0,0,0,0,.75Z" transform="translate(-39.5 -212.59)"/><path class="cls-5" d="M142.29,405.35h0a1.93,1.93,0,0,1-.34,0l.37.37h0v.1h0l0,.09h0l-.06.07h0l-.08.06h0l-.09,0h-.17l-.09,0h0l-.07-.06h0l-.06-.07h0a.36.36,0,0,0,.1.11l.13.07a.38.38,0,0,0,.15,0,.25.25,0,0,0,.14,0,.36.36,0,0,0,.17-.23v-.1a.34.34,0,0,0,0-.19.38.38,0,0,0-.14-.14.42.42,0,0,0-.31,0,.4.4,0,0,0-.18.1l-.07.09a.41.41,0,0,0,0,.19.4.4,0,0,0,0,.15l.08.12.08.06a.41.41,0,0,0,.19.05,2.13,2.13,0,0,0,.5,0,.29.29,0,0,0,.12-.07.32.32,0,0,0,.1-.1.25.25,0,0,0,0-.14.26.26,0,0,0,0-.15.41.41,0,0,0-.18-.23l-.08,0a.67.67,0,0,0-.2,0Z" transform="translate(-39.5 -212.59)"/><path class="cls-2" d="M68.52,311" transform="translate(-39.5 -212.59)"/><path class="cls-2" d="M70.07,317.34" transform="translate(-39.5 -212.59)"/><path class="cls-2" d="M69.88,322.62" transform="translate(-39.5 -212.59)"/><path class="cls-2" d="M67.4,327.32" transform="translate(-39.5 -212.59)"/><polyline class="cls-6" points="104.23 158.98 93.69 153.04 44.85 125.54 10.38 106.13 117.81 2.47 211.66 55.32"/><line class="cls-7" x1="23.64" y1="146" x2="9.38" y2="137.97"/></g><g id="Layer_3" data-name="Layer 3"><polygon class="cls-5" points="41.58 132.03 7.41 165.01 52.15 190.2 86.32 157.23 41.58 132.03"/><polyline class="cls-2" points="103.77 171.26 91.82 164.52 45.98 139.02 12.92 120.41"/><polyline class="cls-8" points="72.49 173.5 52.17 193.11 3.32 165.61 23.64 146"/><path class="cls-1" d="M84.35,338.13" transform="translate(-39.5 -212.59)"/><path class="cls-5" d="M143.87,369.22a2.61,2.61,0,0,0,.08.56s0,.05,0,.08.12.29.19.43a1,1,0,0,0,.08.14,2.79,2.79,0,0,0,.35.42l.3.24a1.12,1.12,0,0,0,.56.18.9.9,0,0,0,.4,0,1.09,1.09,0,0,0,.55-.18l.31-.24.23-.3a1.66,1.66,0,0,0,.15-1.16,1.88,1.88,0,0,0-.12-.3c0-.1-.08-.2-.13-.3l-.08-.12c-.08-.12-.17-.23-.26-.35s0,0-.05-.05l-.1-.09a3,3,0,0,0-.4-.31.41.41,0,0,0-.11-.07l-.07,0-.41-.17a1.22,1.22,0,0,0-.6,0,1.34,1.34,0,0,0-1,.57,1.14,1.14,0,0,0-.27.51l0,.4a1.5,1.5,0,0,0,.2.75l.24.31a1.57,1.57,0,0,0,.66.38h0l-.36-.15a1,1,0,0,1,.25.15l-.3-.23a1.34,1.34,0,0,1,.21.2l-.24-.3a1,1,0,0,1,.16.26l-.15-.36,0,.13,2.51-1.46-.1-.1.23.3a1.28,1.28,0,0,1-.11-.2l.15.36a.79.79,0,0,1-.06-.22l.05.4v0a1.11,1.11,0,0,0-.13-.57,1.21,1.21,0,0,0-.31-.49,1.24,1.24,0,0,0-.48-.31,1.29,1.29,0,0,0-.58-.13l-.4.06a1.45,1.45,0,0,0-.66.38l-.24.31a1.5,1.5,0,0,0-.2.75Z" transform="translate(-39.5 -212.59)"/><path class="cls-5" d="M144.47,369.76a1.5,1.5,0,0,0,0-3,1.5,1.5,0,0,0,0,3Z" transform="translate(-39.5 -212.59)"/><path class="cls-5" d="M143,368.61l1.41,2.57a1.56,1.56,0,0,0,.9.69,1.54,1.54,0,0,0,1.15-.16,1.47,1.47,0,0,0,.69-.89,1.62,1.62,0,0,0-.15-1.16l-1.41-2.57a1.56,1.56,0,0,0-.9-.69,1.5,1.5,0,0,0-1.84,1.05,1.62,1.62,0,0,0,.15,1.16Z" transform="translate(-39.5 -212.59)"/><path d="M251.51,269.37a1.5,1.5,0,0,0,0-3,1.5,1.5,0,0,0,0,3Z" transform="translate(-39.5 -212.59)"/><path d="M251.64,269.08a1.5,1.5,0,0,0,0-3,1.5,1.5,0,0,0,0,3Z" transform="translate(-39.5 -212.59)"/><path d="M251.67,269.13a1.5,1.5,0,0,0,0-3,1.5,1.5,0,0,0,0,3Z" transform="translate(-39.5 -212.59)"/><path d="M251.67,269.13a1.5,1.5,0,0,0,0-3,1.5,1.5,0,0,0,0,3Z" transform="translate(-39.5 -212.59)"/><path class="cls-5" d="M254,263.73l-.17-.11a1.82,1.82,0,0,0-1.16-.15l-.36.15a1.31,1.31,0,0,0-.42.39.78.78,0,0,0-.19.33,1.15,1.15,0,0,0-.13.58l0,.4a1.59,1.59,0,0,0,.39.66l.16.13,1.46-2.5,0,0,.36.15,0,0,.31.24-.05,0,.24.3,0,0-2.05,2.05.08,0-.3-.24.09.09-.24-.3a.18.18,0,0,1,.05.07h0l.23.31h0a2.5,2.5,0,0,0,.33.26h0l.19.08.18.08h0l.07,0-.36-.15,0,0-.31-.23h0l-.24-.3,0,0-.15-.36s0,0,0,0l-.06-.39v0l.06-.4v0l.15-.36h0l.23-.3h0l.31-.24h0l.35-.16h0l1.69,2.2h0l-.24.31h0l-.31.24h0l-.36.15h0l-.4.06h0l-.4-.06h0l-.35-.16h0l-.31-.23h0l-.23-.3h0l-.15-.36h0l0-.4h0l0-.4h0a1.62,1.62,0,0,0,.15,1.15,1,1,0,0,0,.38.42,1.06,1.06,0,0,0,.51.27l.4.06a1.55,1.55,0,0,0,.76-.21l.3-.23a1.47,1.47,0,0,0,.39-.67s0-.38.06-.4h0l-.06-.4a.48.48,0,0,0-.08-.18c.05.1,0-.13-.07-.18l-.24-.31a.74.74,0,0,0-.16-.12,1.08,1.08,0,0,0-.52-.28h0l-.4-.05h0l-.4.05-.36.15-.16.12c-.2.16-.12.07-.27.28.08-.12-.1.1-.13.16l-.15.35-.05.4.05.4a1.14,1.14,0,0,0,.27.51.87.87,0,0,0,.27.27.69.69,0,0,0,.33.19.73.73,0,0,0,.38.11,1.22,1.22,0,0,0,.6,0,1.62,1.62,0,0,0,.68-.4,1.55,1.55,0,0,0,.4-.69,1.63,1.63,0,0,0,0-.82,2,2,0,0,0-.16-.4,1.62,1.62,0,0,0-.6-.59,2.78,2.78,0,0,0-.4-.16l-.06,0,.36.15,0,0,.31.23,0,0,.24.31,0-.07-.24-.32h0l0,0,0,0h0l-.31-.24-.07,0-.36-.15a1,1,0,0,0-.6,0,.72.72,0,0,0-.38.1,1.11,1.11,0,0,0-.48.31l-.24.31-.15.35a1.11,1.11,0,0,0,0,.6,1,1,0,0,0,.17.56l0,0h0l.23.31a1.56,1.56,0,0,0,.2.16.94.94,0,0,0,.19.14l.37.16h0l.39.05a1.06,1.06,0,0,0,.58-.13.69.69,0,0,0,.33-.19,1.12,1.12,0,0,0,.39-.42l.15-.36.05-.4a1.17,1.17,0,0,0-.12-.58,1.37,1.37,0,0,0-.31-.48l-.17-.13-1.82,2.35.18.11a1.12,1.12,0,0,0,.56.18,1,1,0,0,0,.59,0,1,1,0,0,0,.51-.26,1.12,1.12,0,0,0,.39-.42l.15-.36a1.55,1.55,0,0,0,0-.8l-.15-.36a1.55,1.55,0,0,0-.54-.54Z" transform="translate(-39.5 -212.59)"/><path class="cls-5" d="M254.08,267.38a1.5,1.5,0,0,0,0-3,1.5,1.5,0,0,0,0,3Z" transform="translate(-39.5 -212.59)"/><path class="cls-5" d="M254,267.25a1.5,1.5,0,0,0,0-3,1.5,1.5,0,0,0,0,3Z" transform="translate(-39.5 -212.59)"/><path class="cls-5" d="M254,267.3a1.5,1.5,0,0,0,0-3,1.5,1.5,0,0,0,0,3Z" transform="translate(-39.5 -212.59)"/><path class="cls-5" d="M254.18,267.59a1.5,1.5,0,0,0,0-3,1.5,1.5,0,0,0,0,3Z" transform="translate(-39.5 -212.59)"/><path class="cls-5" d="M253.16,266.54a1.5,1.5,0,0,0,0-3,1.5,1.5,0,0,0,0,3Z" transform="translate(-39.5 -212.59)"/><path class="cls-5" d="M252.8,266.28a1.5,1.5,0,0,0,0-3,1.5,1.5,0,0,0,0,3Z" transform="translate(-39.5 -212.59)"/><path class="cls-5" d="M252.87,266.35a1.5,1.5,0,0,0,0-3,1.5,1.5,0,0,0,0,3Z" transform="translate(-39.5 -212.59)"/><path class="cls-5" d="M253.32,266.67a1.5,1.5,0,0,0,0-3,1.5,1.5,0,0,0,0,3Z" transform="translate(-39.5 -212.59)"/><path class="cls-5" d="M253,266.45a1.5,1.5,0,0,0,0-3,1.5,1.5,0,0,0,0,3Z" transform="translate(-39.5 -212.59)"/><path class="cls-5" d="M253.72,267a1.5,1.5,0,0,0,0-3,1.5,1.5,0,0,0,0,3Z" transform="translate(-39.5 -212.59)"/><path class="cls-5" d="M253.72,267a1.5,1.5,0,0,0,0-3,1.5,1.5,0,0,0,0,3Z" transform="translate(-39.5 -212.59)"/><path class="cls-5" d="M253.66,267a1.5,1.5,0,0,0,0-3,1.5,1.5,0,0,0,0,3Z" transform="translate(-39.5 -212.59)"/><path class="cls-5" d="M253.61,266.92a1.5,1.5,0,0,0,0-3,1.5,1.5,0,0,0,0,3Z" transform="translate(-39.5 -212.59)"/><path d="M251,302.34a1.5,1.5,0,0,0,0-3,1.5,1.5,0,0,0,0,3Z" transform="translate(-39.5 -212.59)"/><path d="M251.39,302.62a1.5,1.5,0,0,0,0-3,1.5,1.5,0,0,0,0,3Z" transform="translate(-39.5 -212.59)"/><path d="M251.44,302.57a1.5,1.5,0,0,0,0-3,1.5,1.5,0,0,0,0,3Z" transform="translate(-39.5 -212.59)"/><path d="M251.48,302.57a1.5,1.5,0,0,0,0-3,1.5,1.5,0,0,0,0,3Z" transform="translate(-39.5 -212.59)"/><path d="M251.48,302.67a1.5,1.5,0,0,0,0-3,1.5,1.5,0,0,0,0,3Z" transform="translate(-39.5 -212.59)"/><path d="M251.48,302.67a1.5,1.5,0,0,0,0-3,1.5,1.5,0,0,0,0,3Z" transform="translate(-39.5 -212.59)"/><path d="M250.62,302a1.5,1.5,0,0,0,0-3,1.5,1.5,0,0,0,0,3Z" transform="translate(-39.5 -212.59)"/><path d="M250.48,302.19a1.5,1.5,0,0,0,0-3,1.5,1.5,0,0,0,0,3Z" transform="translate(-39.5 -212.59)"/><path d="M250.43,302.19a1.5,1.5,0,0,0,0-3,1.5,1.5,0,0,0,0,3Z" transform="translate(-39.5 -212.59)"/><path d="M250.81,270a1.5,1.5,0,0,0,0-3,1.5,1.5,0,0,0,0,3Z" transform="translate(-39.5 -212.59)"/><path d="M141.55,372.64a1.5,1.5,0,0,0,0-3,1.5,1.5,0,0,0,0,3Z" transform="translate(-39.5 -212.59)"/><path d="M141.84,373.17a1.5,1.5,0,0,0,0-3,1.5,1.5,0,0,0,0,3Z" transform="translate(-39.5 -212.59)"/><path d="M141.26,372.21a1.5,1.5,0,0,0,0-3,1.5,1.5,0,0,0,0,3Z" transform="translate(-39.5 -212.59)"/><path d="M142.89,373.07a1.5,1.5,0,0,0,0-3,1.5,1.5,0,0,0,0,3Z" transform="translate(-39.5 -212.59)"/><path class="cls-5" d="M144.13,369.34a1.5,1.5,0,0,0,0-3,1.5,1.5,0,0,0,0,3Z" transform="translate(-39.5 -212.59)"/><path class="cls-5" d="M144.23,369.48a1.5,1.5,0,0,0,0-3,1.5,1.5,0,0,0,0,3Z" transform="translate(-39.5 -212.59)"/><path class="cls-5" d="M143.85,369.1a1.5,1.5,0,0,0,0-3,1.5,1.5,0,0,0,0,3Z" transform="translate(-39.5 -212.59)"/><path class="cls-5" d="M64.05,356.51a1.5,1.5,0,0,0,0-3,1.5,1.5,0,0,0,0,3Z" transform="translate(-39.5 -212.59)"/><path class="cls-5" d="M63.77,356.37a1.5,1.5,0,0,0,0-3,1.5,1.5,0,0,0,0,3Z" transform="translate(-39.5 -212.59)"/><path class="cls-5" d="M63.66,356.34a1.5,1.5,0,0,0,0-3,1.5,1.5,0,0,0,0,3Z" transform="translate(-39.5 -212.59)"/><path class="cls-5" d="M64.64,356.79a1.5,1.5,0,0,0,0-3,1.5,1.5,0,0,0,0,3Z" transform="translate(-39.5 -212.59)"/><path class="cls-5" d="M64.92,357a1.5,1.5,0,0,0,0-3,1.5,1.5,0,0,0,0,3Z" transform="translate(-39.5 -212.59)"/><path class="cls-5" d="M65.06,357.14a1.5,1.5,0,0,0,0-3,1.5,1.5,0,0,0,0,3Z" transform="translate(-39.5 -212.59)"/><path class="cls-5" d="M64.64,356.83a1.5,1.5,0,0,0,0-3,1.5,1.5,0,0,0,0,3Z" transform="translate(-39.5 -212.59)"/><path class="cls-5" d="M64.43,356.76a1.5,1.5,0,0,0,0-3,1.5,1.5,0,0,0,0,3Z" transform="translate(-39.5 -212.59)"/><path class="cls-5" d="M64.26,356.65a1.5,1.5,0,0,0,0-3,1.5,1.5,0,0,0,0,3Z" transform="translate(-39.5 -212.59)"/><path class="cls-5" d="M64.78,357a1.5,1.5,0,0,0,0-3,1.5,1.5,0,0,0,0,3Z" transform="translate(-39.5 -212.59)"/><path class="cls-5" d="M63.58,356.31a1.5,1.5,0,0,0,0-3,1.5,1.5,0,0,0,0,3Z" transform="translate(-39.5 -212.59)"/><path class="cls-5" d="M63.89,356.49a1.5,1.5,0,0,0,0-3,1.5,1.5,0,0,0,0,3Z" transform="translate(-39.5 -212.59)"/><path class="cls-5" d="M64.08,356.59a1.5,1.5,0,0,0,0-3,1.5,1.5,0,0,0,0,3Z" transform="translate(-39.5 -212.59)"/><path class="cls-5" d="M64.33,356.75a1.5,1.5,0,0,0,0-3,1.5,1.5,0,0,0,0,3Z" transform="translate(-39.5 -212.59)"/><path class="cls-5" d="M112.48,383.83a1.5,1.5,0,0,0,0-3,1.5,1.5,0,0,0,0,3Z" transform="translate(-39.5 -212.59)"/><path class="cls-5" d="M113.2,384.21a1.5,1.5,0,0,0,0-3,1.5,1.5,0,0,0,0,3Z" transform="translate(-39.5 -212.59)"/><path class="cls-5" d="M113.55,384.48a1.5,1.5,0,0,0,0-3,1.5,1.5,0,0,0,0,3Z" transform="translate(-39.5 -212.59)"/><path class="cls-5" d="M113.85,384.63a1.5,1.5,0,0,0,0-3,1.5,1.5,0,0,0,0,3Z" transform="translate(-39.5 -212.59)"/><path class="cls-5" d="M113,384.11a1.5,1.5,0,0,0,0-3,1.5,1.5,0,0,0,0,3Z" transform="translate(-39.5 -212.59)"/><path class="cls-5" d="M112.81,384a1.5,1.5,0,0,0,0-3,1.5,1.5,0,0,0,0,3Z" transform="translate(-39.5 -212.59)"/><path class="cls-5" d="M113.28,384.31a1.5,1.5,0,0,0,0-3,1.5,1.5,0,0,0,0,3Z" transform="translate(-39.5 -212.59)"/><path class="cls-5" d="M110.07,384.56a1.5,1.5,0,0,0,0-3,1.5,1.5,0,0,0,0,3Z" transform="translate(-39.5 -212.59)"/><path class="cls-5" d="M110.52,384.23a1.5,1.5,0,0,0,0-3,1.5,1.5,0,0,0,0,3Z" transform="translate(-39.5 -212.59)"/><path class="cls-5" d="M110.64,384.18a1.5,1.5,0,0,0,0-3,1.5,1.5,0,0,0,0,3Z" transform="translate(-39.5 -212.59)"/><path class="cls-5" d="M109.52,385.05a1.5,1.5,0,0,0,0-3,1.5,1.5,0,0,0,0,3Z" transform="translate(-39.5 -212.59)"/><path class="cls-5" d="M109.5,385.13a1.5,1.5,0,0,0,0-3,1.5,1.5,0,0,0,0,3Z" transform="translate(-39.5 -212.59)"/><path class="cls-5" d="M109.77,384.85a1.5,1.5,0,0,0,0-3,1.5,1.5,0,0,0,0,3Z" transform="translate(-39.5 -212.59)"/><path class="cls-5" d="M110.07,384.58a1.5,1.5,0,0,0,0-3,1.5,1.5,0,0,0,0,3Z" transform="translate(-39.5 -212.59)"/><path class="cls-5" d="M112.76,384a1.5,1.5,0,0,0,0-3,1.5,1.5,0,0,0,0,3Z" transform="translate(-39.5 -212.59)"/><path class="cls-5" d="M113,384.13a1.5,1.5,0,0,0,0-3,1.5,1.5,0,0,0,0,3Z" transform="translate(-39.5 -212.59)"/><polygon points="42.33 136.89 14.29 163.95 51.01 184.63 79.05 157.57 42.33 136.89"/><path class="cls-5" d="M65.34,357.6a1.5,1.5,0,0,0,0-3,1.5,1.5,0,0,0,0,3Z" transform="translate(-39.5 -212.59)"/><path class="cls-5" d="M65,357.48a1.5,1.5,0,0,0,0-3,1.5,1.5,0,0,0,0,3Z" transform="translate(-39.5 -212.59)"/><path class="cls-5" d="M64.75,357.39a1.5,1.5,0,0,0,0-3,1.5,1.5,0,0,0,0,3Z" transform="translate(-39.5 -212.59)"/><path class="cls-5" d="M64.51,357.27a1.5,1.5,0,0,0,0-3,1.5,1.5,0,0,0,0,3Z" transform="translate(-39.5 -212.59)"/><path class="cls-5" d="M64.38,357.17a1.5,1.5,0,0,0,0-3,1.5,1.5,0,0,0,0,3Z" transform="translate(-39.5 -212.59)"/><polygon points="23.45 143.6 20.76 146.19 24.28 148.17 26.96 145.58 23.45 143.6"/><text class="cls-9" transform="matrix(0.49, -0.48, -0.15, 0.99, 113.92, 176.55)">I N B O O X</text><path class="cls-10" d="M49.67,322c6.27,15.4,0,26.33,0,26.33" transform="translate(-39.5 -212.59)"/></g></svg>